<svg width="8" height="8" viewBox="0 0 8 8" fill="none" xmlns="http://www.w3.org/2000/svg">
  <path fill-rule="evenodd" clip-rule="evenodd" d="M0.186174 6.9149C-0.062058 7.16313 -0.062058 7.56559 0.186174 7.81383C0.434406 8.06206 0.836869 8.06206 1.0851 7.81383L7.81383 1.0851C8.06206 0.83687 8.06206 0.434406 7.81383 0.186174C7.56559 -0.0620579 7.16313 -0.0620579 6.9149 0.186174L0.186174 6.9149ZM4 6.9149C3.75177 7.16313 3.75177 7.56559 4 7.81383C4.24823 8.06206 4.6507 8.06206 4.89893 7.81383L7.81383 4.89893C8.06206 4.6507 8.06206 4.24823 7.81383 4C7.56559 3.75177 7.16313 3.75177 6.9149 4L4 6.9149Z" fill="#4E6178"/>
</svg>
